<svg viewBox="0 0 18 23" xmlns="http://www.w3.org/2000/svg"><g fill-rule="nonzero" fill="none"><path d="M3.48 20.9A16.2 16.2 0 01.7 16.95a8.9 8.9 0 01-.53-5.12c.33-1.73 1.1-3.36 2.2-4.75-.1 1.2.34 2.45 1.15 3.36-.48-2.3.3-4.8 1.82-6.62A13.7 13.7 0 0111.2 0c-1.1 1.15-1.25 2.97-.81 4.5.43 1.54 1.34 2.88 2.15 4.27.82 1.39 1.58 2.83 1.63 4.4.43-.8.91-1.62 1.2-2.53.29-.91.43-1.87.2-2.78a7.13 7.13 0 011.57 3.45c.24 1.34.2 2.73.05 4.07-.2 1.49-.58 3.02-1.39 4.27a8 8 0 01-4.17 3.11c-2.97.53-5.78.2-8.14-1.87z" fill="#F76248"/><path d="M7.12 22.66c3.93 1.54 7.8-3.11 5.65-6.7 0-.05-.05-.05-.05-.1.2 1.96-.28 3.4-1.2 4.22.48-1.15.15-2.5-.43-3.64-.57-1.1-1.39-2.11-2-3.17-.63-1.1-1.11-2.34-.82-3.6a6.32 6.32 0 00-1.82 7.77 3.15 3.15 0 01-1.3-2.3 4.93 4.93 0 00-1.2 3.3c0 1.88 1.49 3.55 3.17 4.22z" fill="#FFCA45"/></g></svg>