<svg width="22" height="22" viewBox="0 0 22 22" fill="none" xmlns="http://www.w3.org/2000/svg">
<path fill-rule="evenodd" clip-rule="evenodd" d="M0.986321 0V0C0.986321 0.549616 1.43187 0.995168 1.98149 0.995168H20.6658C21.4027 0.995168 22 1.59251 22 2.32937V20.1593C22 20.6056 21.6381 20.9675 21.1918 20.9675H2.01884C1.4486 20.9675 0.986321 21.4298 0.986321 22V22V22C0.441591 22 0 21.5584 0 21.0137L0 0.986321C0 0.441591 0.441591 0 0.986321 0V0Z" fill="#65AB3B"/>
<path d="M13 10H16V12H13V15H11V12H8V10H11V7H13V10Z" fill="white"/>
</svg>
