<svg width="20" height="20" viewBox="0 0 20 20" fill="none" xmlns="http://www.w3.org/2000/svg">
<path fill-rule="evenodd" clip-rule="evenodd" d="M12.1802 14.4007C10.9391 15.2227 9.45078 15.7014 7.85068 15.7014C3.51487 15.7014 0 12.1865 0 7.85069C0 3.51487 3.51487 0 7.85068 0C12.1865 0 15.7014 3.51487 15.7014 7.85069C15.7014 9.45078 15.2227 10.9391 14.4007 12.1802L19.5401 17.3196C20.1533 17.9328 20.1533 18.9269 19.5401 19.5401C18.9269 20.1533 17.9328 20.1533 17.3196 19.5401L12.1802 14.4007ZM10.6578 12.8783C9.82735 13.343 8.86995 13.6079 7.85068 13.6079C4.67109 13.6079 2.09352 11.0303 2.09352 7.85069C2.09352 4.67109 4.67109 2.09352 7.85068 2.09352C11.0303 2.09352 13.6078 4.67109 13.6078 7.85069C13.6078 8.86995 13.343 9.82734 12.8783 10.6578C12.8758 10.6622 12.8734 10.6666 12.8709 10.671C12.3508 11.5948 11.5831 12.3606 10.6578 12.8783Z" fill="#B7B7B7"/>
</svg>
